<svg width="34" height="35" viewBox="0 0 34 35" fill="none" xmlns="http://www.w3.org/2000/svg">
<g id="ChevronDown">
<path id="Vector" fill-rule="evenodd" clip-rule="evenodd" d="M3.4977 10.3727C3.59639 10.2737 3.71364 10.1952 3.84272 10.1417C3.97181 10.0881 4.11019 10.0605 4.24995 10.0605C4.3897 10.0605 4.52808 10.0881 4.65717 10.1417C4.78625 10.1952 4.9035 10.2737 5.0022 10.3727L16.9999 22.3726L28.9977 10.3727C29.0965 10.2739 29.2138 10.1955 29.3428 10.1421C29.4719 10.0886 29.6102 10.0611 29.7499 10.0611C29.8897 10.0611 30.028 10.0886 30.1571 10.1421C30.2861 10.1955 30.4034 10.2739 30.5022 10.3727C30.601 10.4715 30.6793 10.5888 30.7328 10.7178C30.7863 10.8469 30.8138 10.9852 30.8138 11.1249C30.8138 11.2647 30.7863 11.403 30.7328 11.5321C30.6793 11.6611 30.601 11.7784 30.5022 11.8772L17.7522 24.6272C17.6535 24.7261 17.5363 24.8046 17.4072 24.8582C17.2781 24.9118 17.1397 24.9393 16.9999 24.9393C16.8602 24.9393 16.7218 24.9118 16.5927 24.8582C16.4636 24.8046 16.3464 24.7261 16.2477 24.6272L3.4977 11.8772C3.39875 11.7785 3.32025 11.6613 3.26668 11.5322C3.21312 11.4031 3.18555 11.2647 3.18555 11.1249C3.18555 10.9852 3.21312 10.8468 3.26668 10.7177C3.32025 10.5886 3.39875 10.4714 3.4977 10.3727Z" fill="white"/>
</g>
</svg>
