<svg width="24" height="24" viewBox="0 0 24 24" fill="none" xmlns="http://www.w3.org/2000/svg">
<g id="ChevronDown">
<path id="Vector" fill-rule="evenodd" clip-rule="evenodd" d="M2.46839 6.96912C2.53806 6.89927 2.62082 6.84386 2.71194 6.80605C2.80305 6.76824 2.90074 6.74878 2.99939 6.74878C3.09804 6.74878 3.19572 6.76824 3.28684 6.80605C3.37796 6.84386 3.46072 6.89927 3.53039 6.96912L11.9994 15.4396L20.4684 6.96912C20.5381 6.89939 20.6209 6.84407 20.712 6.80633C20.8031 6.7686 20.9008 6.74917 20.9994 6.74917C21.098 6.74917 21.1957 6.7686 21.2868 6.80633C21.3779 6.84407 21.4607 6.89939 21.5304 6.96912C21.6001 7.03885 21.6554 7.12164 21.6932 7.21274C21.7309 7.30385 21.7503 7.4015 21.7503 7.50012C21.7503 7.59874 21.7309 7.69639 21.6932 7.7875C21.6554 7.8786 21.6001 7.96139 21.5304 8.03112L12.5304 17.0311C12.4607 17.101 12.378 17.1564 12.2868 17.1942C12.1957 17.232 12.098 17.2515 11.9994 17.2515C11.9007 17.2515 11.8031 17.232 11.7119 17.1942C11.6208 17.1564 11.5381 17.101 11.4684 17.0311L2.46839 8.03112C2.39854 7.96145 2.34313 7.87869 2.30532 7.78757C2.26751 7.69645 2.24805 7.59877 2.24805 7.50012C2.24805 7.40147 2.26751 7.30379 2.30532 7.21267C2.34313 7.12155 2.39854 7.03879 2.46839 6.96912Z" fill="#89939E"/>
</g>
</svg>
