<svg width="24" height="24" viewBox="0 0 24 24" fill="none" xmlns="http://www.w3.org/2000/svg">
<path fill-rule="evenodd" clip-rule="evenodd" d="M11.4699 6.96912C11.5396 6.89927 11.6224 6.84386 11.7135 6.80605C11.8046 6.76824 11.9023 6.74878 12.0009 6.74878C12.0996 6.74878 12.1973 6.76824 12.2884 6.80605C12.3795 6.84386 12.4623 6.89927 12.5319 6.96912L21.5319 15.9691C21.6728 16.1099 21.7519 16.301 21.7519 16.5001C21.7519 16.6993 21.6728 16.8903 21.5319 17.0311C21.3911 17.1719 21.2001 17.2511 21.0009 17.2511C20.8018 17.2511 20.6108 17.1719 20.4699 17.0311L12.0009 8.56062L3.53195 17.0311C3.39112 17.1719 3.20011 17.2511 3.00095 17.2511C2.80178 17.2511 2.61078 17.1719 2.46995 17.0311C2.32912 16.8903 2.25 16.6993 2.25 16.5001C2.25 16.301 2.32912 16.1099 2.46995 15.9691L11.4699 6.96912Z" fill="#89939E"/>
</svg>
