<svg width="24" height="24" viewBox="0 0 24 24" fill="none" xmlns="http://www.w3.org/2000/svg">
<g id="FileEarmarkPdfFill">
<path id="Vector" d="M8.28381 18.6359C8.49381 18.5119 8.72331 18.3929 8.97231 18.2789C8.76174 18.5924 8.53649 18.8957 8.29731 19.1879C7.87731 19.6934 7.55031 19.9619 7.34481 20.0459L7.29231 20.0639C7.27746 20.0431 7.26441 20.021 7.25331 19.9979C7.16931 19.8329 7.17231 19.6739 7.31331 19.4579C7.47231 19.2104 7.79181 18.9269 8.28381 18.6359ZM11.9663 16.1654C11.7883 16.2024 11.6103 16.2414 11.4323 16.2824C11.6968 15.7644 11.9469 15.2392 12.1823 14.7074C12.4194 15.1468 12.6746 15.5762 12.9473 15.9944C12.6213 16.0424 12.2943 16.0994 11.9663 16.1654ZM15.7538 17.5739C15.5213 17.3855 15.3032 17.1799 15.1013 16.9589C15.4453 16.9659 15.7513 16.9929 16.0193 17.0399C16.4948 17.1254 16.7183 17.2604 16.7963 17.3534C16.8203 17.3798 16.8341 17.4138 16.8353 17.4494C16.8298 17.5552 16.7989 17.6581 16.7453 17.7494C16.7155 17.8227 16.6669 17.8869 16.6043 17.9354C16.5737 17.9553 16.5369 17.9633 16.5008 17.9579C16.3658 17.9534 16.1138 17.8589 15.7538 17.5739ZM12.4163 10.4549C12.3563 10.8209 12.2543 11.2409 12.1163 11.6984C12.0656 11.5271 12.0211 11.3539 11.9828 11.1794C11.8688 10.6499 11.8523 10.2344 11.9138 9.94641C11.9708 9.68091 12.0788 9.57441 12.2078 9.52191C12.2769 9.49106 12.3502 9.47083 12.4253 9.46191C12.4448 9.50691 12.4673 9.59991 12.4733 9.75891C12.4813 9.94191 12.4623 10.1744 12.4163 10.4564V10.4549Z" fill="#6C7581"/>
<path id="Vector_2" fill-rule="evenodd" clip-rule="evenodd" d="M6.83984 0H14.7793C15.1771 8.49561e-05 15.5586 0.158176 15.8398 0.4395L21.4003 6C21.6817 6.28124 21.8398 6.66271 21.8398 7.0605V21C21.8398 21.7956 21.5238 22.5587 20.9612 23.1213C20.3986 23.6839 19.6355 24 18.8398 24H6.83984C6.04419 24 5.28113 23.6839 4.71852 23.1213C4.15591 22.5587 3.83984 21.7956 3.83984 21V3C3.83984 2.20435 4.15591 1.44129 4.71852 0.87868C5.28113 0.316071 6.04419 0 6.83984 0ZM15.0898 2.25V5.25C15.0898 5.64782 15.2479 6.02936 15.5292 6.31066C15.8105 6.59196 16.192 6.75 16.5898 6.75H19.5898L15.0898 2.25ZM7.08734 20.502C7.22234 20.772 7.43234 21.0165 7.74434 21.1305C8.05484 21.243 8.36234 21.1905 8.61434 21.0855C9.09134 20.8905 9.56684 20.4315 10.0033 19.9065C10.5028 19.305 11.0278 18.516 11.5348 17.6415C12.5137 17.3518 13.516 17.148 14.5303 17.0325C14.9803 17.607 15.4453 18.102 15.8953 18.4575C16.3153 18.7875 16.7998 19.062 17.2963 19.083C17.5667 19.096 17.8344 19.0236 18.0613 18.876C18.2938 18.7245 18.4663 18.5055 18.5923 18.252C18.7273 17.9805 18.8098 17.697 18.7993 17.4075C18.7903 17.122 18.6845 16.848 18.4993 16.6305C18.1603 16.2255 17.6053 16.0305 17.0593 15.933C16.397 15.831 15.725 15.8058 15.0568 15.858C14.4929 15.0602 14.001 14.2139 13.5868 13.329C13.9618 12.339 14.2423 11.403 14.3668 10.638C14.4208 10.311 14.4493 9.999 14.4388 9.717C14.4369 9.43709 14.3718 9.16124 14.2483 8.91C14.1772 8.77137 14.0761 8.65031 13.9523 8.55561C13.8285 8.46091 13.6853 8.39495 13.5328 8.3625C13.2298 8.298 12.9178 8.3625 12.6313 8.478C12.0658 8.703 11.7673 9.183 11.6548 9.7125C11.5453 10.2225 11.5948 10.8165 11.7238 11.4165C11.8558 12.0255 12.0808 12.6885 12.3688 13.359C11.9071 14.5042 11.3751 15.6198 10.7758 16.6995C10.003 16.9431 9.25785 17.2674 8.55284 17.667C7.99784 17.997 7.50434 18.387 7.20734 18.8475C6.89234 19.3365 6.79484 19.9185 7.08734 20.502Z" fill="#6C7581"/>
</g>
</svg>
