<svg width="48" height="48" viewBox="0 0 48 48" fill="none" xmlns="http://www.w3.org/2000/svg">
<g id="HandThumbsUpFill" clip-path="url(#clip0_922_1231)">
<path id="Vector" d="M20.868 5.235C21.063 2.43 23.724 0.260999 26.592 0.974999L27.375 1.173C28.764 1.521 29.997 2.541 30.411 4.068C31.071 6.516 32.01 11.601 30.597 17.598C31.0388 17.5371 31.4819 17.4861 31.926 17.445C34.065 17.25 36.933 17.229 39.474 18.075C41.028 18.594 42.456 20.118 43.074 21.894C43.626 23.49 43.554 25.38 42.372 27.093C42.544 27.453 42.682 27.816 42.786 28.182C43.017 28.992 43.125 29.883 43.125 30.75C43.125 31.617 43.017 32.508 42.786 33.318C42.669 33.723 42.516 34.137 42.306 34.53C42.813 35.691 42.627 36.987 42.297 37.974C41.9574 38.9478 41.463 39.8605 40.833 40.677C40.995 41.133 41.061 41.613 41.061 42.072C41.061 42.987 40.794 43.947 40.302 44.808C39.3 46.566 37.311 48 34.5 48H24C22.185 48 20.79 47.757 19.602 47.346C18.5803 46.9734 17.6041 46.4863 16.692 45.894L16.548 45.804C15.036 44.883 13.551 43.977 10.344 43.638C8.046 43.392 6 41.538 6 39V27C6 24.45 8.055 22.704 10.071 22.155C12.618 21.459 14.793 19.794 16.467 17.925C18.147 16.044 19.209 14.085 19.584 13.008C20.181 11.283 20.652 8.391 20.868 5.238V5.235Z" fill="#198754"/>
</g>
<defs>
<clipPath id="clip0_922_1231">
<rect width="48" height="48" fill="white"/>
</clipPath>
</defs>
</svg>
