<svg width="30" height="30" viewBox="0 0 30 30" fill="none" xmlns="http://www.w3.org/2000/svg">
<g id="iconamoon:home-fill">
<path id="Vector" fill-rule="evenodd" clip-rule="evenodd" d="M15.8548 3.27078C15.6282 3.04425 15.3209 2.91699 15.0005 2.91699C14.6801 2.91699 14.3728 3.04425 14.1462 3.27078L5.6879 11.7291L3.27123 14.1458C3.15583 14.2572 3.06377 14.3906 3.00044 14.538C2.93712 14.6854 2.90378 14.844 2.90239 15.0044C2.901 15.1649 2.93157 15.324 2.99232 15.4725C3.05308 15.621 3.1428 15.7559 3.25626 15.8693C3.36971 15.9828 3.50462 16.0725 3.65312 16.1333C3.80162 16.194 3.96074 16.2246 4.12118 16.2232C4.28162 16.2218 4.44018 16.1885 4.5876 16.1251C4.73502 16.0618 4.86835 15.9698 4.97982 15.8544L5.33386 15.5003V23.4584C5.33386 24.4198 5.71578 25.3418 6.3956 26.0217C7.07542 26.7015 7.99745 27.0834 8.95886 27.0834H21.0422C22.0036 27.0834 22.9256 26.7015 23.6055 26.0217C24.2853 25.3418 24.6672 24.4198 24.6672 23.4584V15.5003L25.0212 15.8544C25.2491 16.0745 25.5544 16.1963 25.8712 16.1935C26.188 16.1908 26.4911 16.0637 26.7151 15.8396C26.9391 15.6156 27.0662 15.3125 27.069 14.9957C27.0717 14.6789 26.9499 14.3737 26.7298 14.1458L15.8548 3.27078Z" fill="#6C7581"/>
</g>
</svg>
