<svg width="34" height="35" viewBox="0 0 34 35" fill="none" xmlns="http://www.w3.org/2000/svg">
<g id="ChevronLeft">
<path id="Vector" fill-rule="evenodd" clip-rule="evenodd" d="M24.1272 3.9977C24.2261 4.09639 24.3046 4.21364 24.3582 4.34272C24.4118 4.47181 24.4393 4.61019 24.4393 4.74995C24.4393 4.8897 24.4118 5.02808 24.3582 5.15717C24.3046 5.28625 24.2261 5.4035 24.1272 5.5022L12.1273 17.4999L24.1272 29.4977C24.3267 29.6972 24.4388 29.9678 24.4388 30.2499C24.4388 30.5321 24.3267 30.8027 24.1272 31.0022C23.9277 31.2017 23.6571 31.3138 23.3749 31.3138C23.0928 31.3138 22.8222 31.2017 22.6227 31.0022L9.8727 18.2522C9.77375 18.1535 9.69524 18.0363 9.64168 17.9072C9.58812 17.7781 9.56055 17.6397 9.56055 17.4999C9.56055 17.3602 9.58812 17.2218 9.64168 17.0927C9.69524 16.9636 9.77375 16.8464 9.8727 16.7477L22.6227 3.9977C22.7214 3.89875 22.8386 3.82025 22.9677 3.76668C23.0968 3.71312 23.2352 3.68555 23.3749 3.68555C23.5147 3.68555 23.6531 3.71312 23.7822 3.76668C23.9113 3.82025 24.0285 3.89875 24.1272 3.9977Z" fill="black"/>
</g>
</svg>
