<svg width="29" height="29" viewBox="0 0 29 29" fill="none" xmlns="http://www.w3.org/2000/svg">
<g id="majesticons:logout">
<path id="Vector" fill-rule="evenodd" clip-rule="evenodd" d="M7.25 1.20825C6.28859 1.20825 5.36656 1.59017 4.68674 2.26999C4.00692 2.94981 3.625 3.87184 3.625 4.83325V21.7499C3.625 22.7113 4.00692 23.6334 4.68674 24.3132C5.36656 24.993 6.28859 25.3749 7.25 25.3749H14.5C15.4614 25.3749 16.3834 24.993 17.0633 24.3132C17.7431 23.6334 18.125 22.7113 18.125 21.7499V4.83325C18.125 3.87184 17.7431 2.94981 17.0633 2.26999C16.3834 1.59017 15.4614 1.20825 14.5 1.20825H7.25ZM19.6874 7.60396C19.914 7.37743 20.2213 7.25018 20.5417 7.25018C20.8621 7.25018 21.1694 7.37743 21.396 7.60396L26.2293 12.4373C26.4558 12.6639 26.5831 12.9712 26.5831 13.2916C26.5831 13.612 26.4558 13.9193 26.2293 14.1459L21.396 18.9792C21.1681 19.1993 20.8628 19.3211 20.546 19.3184C20.2292 19.3156 19.9261 19.1885 19.7021 18.9645C19.4781 18.7405 19.351 18.4374 19.3482 18.1206C19.3455 17.8037 19.4673 17.4985 19.6874 17.2706L22.4581 14.4999H12.0833C11.7629 14.4999 11.4555 14.3726 11.2289 14.146C11.0023 13.9194 10.875 13.6121 10.875 13.2916C10.875 12.9711 11.0023 12.6638 11.2289 12.4372C11.4555 12.2106 11.7629 12.0833 12.0833 12.0833H22.4581L19.6874 9.31254C19.4608 9.08595 19.3336 8.77866 19.3336 8.45825C19.3336 8.13784 19.4608 7.83056 19.6874 7.60396Z" fill="#6C7581"/>
</g>
</svg>
