<svg width="596" height="61" viewBox="0 0 596 61" fill="none" xmlns="http://www.w3.org/2000/svg">
<rect x="0.5" y="0.5" width="595" height="60" rx="8.5" fill="white"/>
<rect x="0.5" y="0.5" width="595" height="60" rx="8.5" stroke="#89939E"/>
<path d="M25.158 37.216C24.402 37.216 23.748 37.072 23.196 36.784C22.656 36.496 22.236 36.082 21.936 35.542C21.648 35.002 21.504 34.36 21.504 33.616H23.034C23.034 34.036 23.1 34.42 23.232 34.768C23.376 35.104 23.598 35.374 23.898 35.578C24.21 35.77 24.624 35.866 25.14 35.866C25.644 35.866 26.04 35.77 26.328 35.578C26.628 35.386 26.838 35.128 26.958 34.804C27.09 34.468 27.156 34.09 27.156 33.67V24.4H28.668V33.67C28.668 34.798 28.356 35.674 27.732 36.298C27.12 36.91 26.262 37.216 25.158 37.216ZM34.572 37.216C33.828 37.216 33.21 37.09 32.718 36.838C32.238 36.586 31.878 36.25 31.638 35.83C31.398 35.398 31.278 34.93 31.278 34.426C31.278 33.814 31.434 33.298 31.746 32.878C32.07 32.458 32.52 32.14 33.096 31.924C33.684 31.696 34.368 31.582 35.148 31.582H37.56C37.56 31.018 37.47 30.55 37.29 30.178C37.122 29.806 36.87 29.524 36.534 29.332C36.198 29.14 35.79 29.044 35.31 29.044C34.734 29.044 34.23 29.194 33.798 29.494C33.378 29.782 33.12 30.202 33.024 30.754H31.476C31.548 30.118 31.764 29.578 32.124 29.134C32.496 28.69 32.964 28.354 33.528 28.126C34.092 27.886 34.686 27.766 35.31 27.766C36.138 27.766 36.828 27.922 37.38 28.234C37.944 28.534 38.364 28.96 38.64 29.512C38.928 30.052 39.072 30.694 39.072 31.438V37H37.722L37.632 35.398C37.512 35.65 37.356 35.89 37.164 36.118C36.984 36.334 36.768 36.526 36.516 36.694C36.276 36.85 35.994 36.976 35.67 37.072C35.346 37.168 34.98 37.216 34.572 37.216ZM34.806 35.938C35.238 35.938 35.622 35.854 35.958 35.686C36.294 35.506 36.582 35.266 36.822 34.966C37.074 34.666 37.26 34.33 37.38 33.958C37.5 33.574 37.56 33.184 37.56 32.788V32.752H35.274C34.698 32.752 34.23 32.824 33.87 32.968C33.51 33.1 33.252 33.286 33.096 33.526C32.94 33.766 32.862 34.042 32.862 34.354C32.862 34.678 32.934 34.96 33.078 35.2C33.234 35.44 33.456 35.626 33.744 35.758C34.032 35.878 34.386 35.938 34.806 35.938ZM45.0533 37C44.5133 37 44.0453 36.916 43.6493 36.748C43.2533 36.58 42.9473 36.298 42.7313 35.902C42.5273 35.494 42.4253 34.948 42.4253 34.264V29.26H40.8593V27.982H42.4253L42.6233 25.822H43.9373V27.982H46.5653V29.26H43.9373V34.264C43.9373 34.828 44.0513 35.212 44.2793 35.416C44.5073 35.608 44.9093 35.704 45.4853 35.704H46.4393V37H45.0533ZM49.025 37V27.982H50.537V37H49.025ZM49.781 26.038C49.481 26.038 49.229 25.942 49.025 25.75C48.833 25.546 48.737 25.294 48.737 24.994C48.737 24.694 48.833 24.454 49.025 24.274C49.229 24.082 49.481 23.986 49.781 23.986C50.069 23.986 50.315 24.082 50.519 24.274C50.723 24.454 50.825 24.694 50.825 24.994C50.825 25.294 50.723 25.546 50.519 25.75C50.315 25.942 50.069 26.038 49.781 26.038Z" fill="#2B313A"/>
<path fill-rule="evenodd" clip-rule="evenodd" d="M562.47 23.9689C562.54 23.899 562.622 23.8436 562.713 23.8058C562.805 23.768 562.902 23.7485 563.001 23.7485C563.1 23.7485 563.197 23.768 563.288 23.8058C563.38 23.8436 563.462 23.899 563.532 23.9689L572.532 32.9689C572.673 33.1097 572.752 33.3007 572.752 33.4999C572.752 33.699 572.673 33.89 572.532 34.0309C572.391 34.1717 572.2 34.2508 572.001 34.2508C571.802 34.2508 571.611 34.1717 571.47 34.0309L563.001 25.5604L554.532 34.0309C554.391 34.1717 554.2 34.2508 554.001 34.2508C553.802 34.2508 553.611 34.1717 553.47 34.0309C553.329 33.89 553.25 33.699 553.25 33.4999C553.25 33.3007 553.329 33.1097 553.47 32.9689L562.47 23.9689Z" fill="#89939E"/>
</svg>
