<svg width="24" height="25" viewBox="0 0 24 25" fill="none" xmlns="http://www.w3.org/2000/svg">
<g id="CaretUpFill">
<path id="Vector" d="M10.8708 7.79003L3.67676 16.0115C2.82776 16.982 3.51776 18.5 4.80626 18.5H19.1943C19.4826 18.5003 19.765 18.4174 20.0074 18.2613C20.2499 18.1052 20.4422 17.8826 20.5614 17.62C20.6806 17.3574 20.7216 17.066 20.6794 16.7808C20.6373 16.4955 20.5138 16.2284 20.3238 16.0115L13.1298 7.79153C12.989 7.63042 12.8153 7.50129 12.6205 7.41281C12.4257 7.32434 12.2142 7.27856 12.0003 7.27856C11.7863 7.27856 11.5748 7.32434 11.38 7.41281C11.1852 7.50129 11.0116 7.62892 10.8708 7.79003Z" fill="white"/>
</g>
</svg>
