<svg width="24" height="24" viewBox="0 0 24 24" fill="none" xmlns="http://www.w3.org/2000/svg">
<g id="FolderFill">
<path id="Vector" d="M14.7418 4.5H20.7148C21.1317 4.49996 21.544 4.5868 21.9255 4.75499C22.3069 4.92317 22.6491 5.16902 22.9303 5.47683C23.2114 5.78465 23.4253 6.14768 23.5583 6.54276C23.6913 6.93785 23.7406 7.35633 23.7028 7.7715L22.7473 18.2715C22.6796 19.0169 22.3357 19.71 21.7831 20.2148C21.2306 20.7197 20.5093 20.9997 19.7608 21H4.23733C3.48889 20.9997 2.76758 20.7197 2.21503 20.2148C1.66247 19.71 1.31856 19.0169 1.25083 18.2715L0.29533 7.7715C0.232686 7.07678 0.414086 6.38194 0.80833 5.8065L0.74983 4.5C0.74983 3.70435 1.0659 2.94129 1.62851 2.37868C2.19112 1.81607 2.95418 1.5 3.74983 1.5H9.25783C10.0534 1.50017 10.8164 1.81635 11.3788 2.379L12.6208 3.621C13.1833 4.18365 13.9462 4.49983 14.7418 4.5ZM2.25883 4.68C2.58083 4.561 2.92283 4.501 3.28483 4.5H11.3788L10.3183 3.4395C10.0371 3.15818 9.65562 3.00008 9.25783 3H3.74983C3.35689 2.99993 2.97962 3.15405 2.69912 3.42922C2.41862 3.70439 2.2573 4.07864 2.24983 4.4715L2.25883 4.68Z" fill="#6C7581"/>
</g>
</svg>
