<svg width="29" height="30" viewBox="0 0 29 30" fill="none" xmlns="http://www.w3.org/2000/svg">
<g id="iconamoon:home-fill">
<path id="Vector" fill-rule="evenodd" clip-rule="evenodd" d="M15.3548 3.27078C15.1282 3.04425 14.8209 2.91699 14.5005 2.91699C14.1801 2.91699 13.8728 3.04425 13.6462 3.27078L5.1879 11.7291L2.77123 14.1458C2.65583 14.2572 2.56377 14.3906 2.50044 14.538C2.43712 14.6854 2.40378 14.844 2.40239 15.0044C2.401 15.1649 2.43157 15.324 2.49232 15.4725C2.55308 15.621 2.6428 15.7559 2.75626 15.8693C2.86971 15.9828 3.00462 16.0725 3.15312 16.1333C3.30162 16.194 3.46074 16.2246 3.62118 16.2232C3.78162 16.2218 3.94018 16.1885 4.0876 16.1251C4.23502 16.0618 4.36835 15.9698 4.47982 15.8544L4.83386 15.5003V23.4584C4.83386 24.4198 5.21578 25.3418 5.8956 26.0217C6.57542 26.7015 7.49745 27.0834 8.45886 27.0834H20.5422C21.5036 27.0834 22.4256 26.7015 23.1055 26.0217C23.7853 25.3418 24.1672 24.4198 24.1672 23.4584V15.5003L24.5212 15.8544C24.7491 16.0745 25.0544 16.1963 25.3712 16.1935C25.688 16.1908 25.9911 16.0637 26.2151 15.8396C26.4391 15.6156 26.5662 15.3125 26.569 14.9957C26.5717 14.6789 26.4499 14.3737 26.2298 14.1458L15.3548 3.27078Z" fill="white"/>
</g>
</svg>
