<svg width="24" height="25" viewBox="0 0 24 25" fill="none" xmlns="http://www.w3.org/2000/svg">
<g id="ArrowCounterclockwise" clip-path="url(#clip0_1136_1652)">
<path id="Vector" fill-rule="evenodd" clip-rule="evenodd" d="M11.9996 5C13.6206 5.00062 15.1977 5.52639 16.4948 6.49856C17.7919 7.47072 18.7391 8.83696 19.1945 10.3926C19.65 11.9483 19.5892 13.6096 19.0213 15.1278C18.4533 16.6461 17.4088 17.9394 16.0441 18.8142C14.6794 19.6889 13.0681 20.098 11.4514 19.9801C9.83472 19.8623 8.29973 19.2238 7.07635 18.1604C5.85297 17.097 5.00705 15.6658 4.66529 14.0813C4.32353 12.4968 4.50432 10.8442 5.18058 9.371C5.25419 9.19189 5.25567 8.99126 5.18471 8.81108C5.11376 8.63091 4.97586 8.48516 4.79989 8.40435C4.62392 8.32353 4.42351 8.31391 4.2406 8.3775C4.0577 8.44109 3.90647 8.57295 3.81858 8.7455C3.0071 10.5134 2.79024 12.4966 3.20048 14.3981C3.61072 16.2996 4.62599 18.0169 6.0942 19.293C7.56241 20.569 9.40453 21.335 11.3446 21.4762C13.2847 21.6175 15.2183 21.1263 16.8559 20.0764C18.4934 19.0264 19.7467 17.4742 20.428 15.6522C21.1093 13.8301 21.1819 11.8364 20.635 9.96967C20.0881 8.1029 18.9511 6.46357 17.3944 5.29723C15.8376 4.13089 13.9448 3.50033 11.9996 3.5V5Z" fill="#6C7581"/>
<path id="Vector_2" d="M12.0008 7.19889V1.30088C12.0007 1.22963 11.9804 1.15986 11.9422 1.09974C11.9039 1.03962 11.8493 0.991638 11.7848 0.961419C11.7203 0.9312 11.6485 0.919992 11.5778 0.929106C11.5071 0.938221 11.4405 0.967282 11.3858 1.01289L7.84577 3.96188C7.80357 3.99708 7.76961 4.04112 7.74631 4.09089C7.72301 4.14065 7.71094 4.19493 7.71094 4.24989C7.71094 4.30484 7.72301 4.35912 7.74631 4.40888C7.76961 4.45865 7.80357 4.50269 7.84577 4.53788L11.3858 7.48689C11.4405 7.53249 11.5071 7.56155 11.5778 7.57066C11.6485 7.57978 11.7203 7.56857 11.7848 7.53835C11.8493 7.50813 11.9039 7.46015 11.9422 7.40003C11.9804 7.33991 12.0007 7.27014 12.0008 7.19889Z" fill="#6C7581"/>
</g>
<defs>
<clipPath id="clip0_1136_1652">
<rect width="24" height="24" fill="white" transform="translate(0 0.5)"/>
</clipPath>
</defs>
</svg>
